<!DOCTYPE svg PUBLIC "-//W3C//DTD SVG 1.1//EN" "http://www.w3.org/Graphics/SVG/1.1/DTD/svg11.dtd">
<!-- Uploaded to: SVG Repo, www.svgrepo.com, Transformed by: SVG Repo Mixer Tools -->
<svg width="800px" height="800px" viewBox="-4 -4 48.00 48.00" xmlns="http://www.w3.org/2000/svg" fill="#000000">
<g id="SVGRepo_bgCarrier" stroke-width="0">
<path transform="translate(-4, -4), scale(1.5)" d="M16,27.0051981492175C17.520040928129898,26.63361075286874,19.25057137319766,27.11893390565566,20.5910087331644,26.31157444400265C21.922948397674396,25.50933323332813,22.26220457374121,23.730464057908275,23.323545500618962,22.594149987356566C24.406595954087646,21.43459282883419,26.564897599234296,21.09367248225355,26.910957053659573,19.545184851485356C27.26952171007861,17.940741082660605,24.880241304183535,16.692119555304977,25.008828506572875,15.053133969177033C25.178062391647025,12.89606162319718,28.03601979679083,11.373967695363843,27.71996599173029,9.23347447978126C27.447532614670997,7.388403210406796,24.906642061693812,6.869008050991136,23.60340392564879,5.534812302697459C22.055723635277126,3.950367828567626,21.463761024926136,0.24447110621838936,19.2757738349056,0.5886957844614358C16.52322528041524,1.021739974500277,16.774917503100973,6.273041155495155,14.093568588669635,7.0309453805996505C11.669481417421135,7.716132563521902,9.668935738467361,3.2176343628668724,7.268816031000476,3.9825562407613084C5.289029742047436,4.61351720544332,5.72713322827936,7.793424000955907,5.312406900269449,9.829515246881375C4.974285379646234,11.489516606099361,5.556189976862014,13.231316525579887,5.055321263435864,14.849667911164907C4.410555809035568,16.932962472265352,1.5331999120554527,18.4192477195328,1.9942608184455786,20.550740520387976C2.432658835631355,22.57746237988562,5.580274830767338,22.59561168375792,7.047739241721377,24.06065179236291C8.422940184155237,25.433580854913167,8.4416298956483,28.22318435436505,10.28756352179382,28.83034239864294C12.207434996224189,29.46181982186648,14.036754027926914,27.48513092316744,16,27.0051981492175" fill="#f178d9" strokewidth="0"/>
</g>
<g id="SVGRepo_tracerCarrier" stroke-linecap="round" stroke-linejoin="round"/>
<g id="SVGRepo_iconCarrier">
<path fill="#000000" fill-rule="nonzero" d="M20 12l6 5.656-1.5 1.414-3.44-3.242V28h-2.12V15.828L15.5 19.07 14 17.656z"/>
</g>
</svg>